<?xml version="1.0" standalone="no"?>
<!DOCTYPE svg PUBLIC "-//W3C//DTD SVG 20010904//EN"
 "http://www.w3.org/TR/2001/REC-SVG-20010904/DTD/svg10.dtd">
<svg version="1.0" xmlns="http://www.w3.org/2000/svg"
 width="460.000000pt" height="460.000000pt" viewBox="0 0 460.000000 460.000000"
 preserveAspectRatio="xMidYMid meet">
<metadata>
Created by potrace 1.14, written by Peter Selinger 2001-2017
</metadata>
<g transform="translate(0.000000,460.000000) scale(0.100000,-0.100000)"
fill="#000000" stroke="none">
<path d="M0 2300 l0 -2300 2300 0 2300 0 0 2300 0 2300 -2300 0 -2300 0 0
-2300z m2535 810 c49 -6 96 -17 105 -24 16 -14 101 -46 123 -46 16 0 111 -47
154 -76 42 -28 96 -88 83 -92 -13 -5 2 -19 65 -62 28 -19 65 -48 83 -65 33
-30 94 -144 108 -201 4 -16 9 -33 12 -39 4 -5 7 -16 8 -25 2 -8 10 -44 18 -80
20 -87 20 -161 -1 -207 -10 -21 -21 -40 -24 -43 -4 -3 -14 -31 -23 -63 -17
-59 -29 -78 -82 -131 -16 -17 -43 -50 -58 -72 -15 -23 -46 -56 -69 -75 -23
-18 -46 -37 -52 -42 -31 -26 -192 -125 -270 -167 -137 -72 -355 -107 -482 -76
-37 9 -106 26 -153 37 -47 11 -121 39 -165 62 -44 22 -110 56 -146 74 -83 43
-171 124 -199 183 -11 25 -33 68 -47 95 -39 76 -47 118 -47 265 -1 133 0 136
33 205 48 101 92 157 188 238 97 83 144 115 226 156 31 16 63 33 70 39 22 18
170 62 210 62 47 0 46 23 -1 28 -65 7 -196 -41 -327 -119 -27 -17 -64 -36 -82
-44 -17 -8 -90 -72 -161 -142 -131 -129 -147 -152 -188 -270 -10 -29 -23 -53
-28 -53 -20 0 2 165 33 251 34 93 52 122 136 214 30 33 65 76 77 95 13 19 41
47 63 62 51 35 178 87 258 105 34 8 82 19 107 25 45 10 195 24 300 26 30 1 95
-3 145 -8z m-1092 -927 c-10 -75 -25 -48 -20 35 3 42 6 79 7 82 7 17 18 -82
13 -117z m-3 -116 c0 -38 36 -141 63 -181 52 -76 161 -167 268 -225 198 -108
312 -151 399 -151 14 0 45 -7 70 -16 36 -13 69 -15 170 -10 142 8 200 22 299
71 38 19 72 35 76 35 3 0 36 20 74 45 38 25 72 45 77 45 5 0 32 20 59 44 28
23 66 51 85 61 48 25 135 114 144 148 3 15 11 27 16 27 6 0 10 7 10 15 0 8 7
15 15 15 9 0 15 9 15 24 0 14 4 28 10 31 6 4 8 -11 4 -42 -13 -105 -45 -214
-76 -260 -14 -21 -35 -54 -46 -73 -57 -95 -205 -195 -437 -295 -22 -10 -48
-24 -58 -33 -24 -22 -95 -34 -223 -39 -97 -4 -123 -1 -210 22 -54 15 -121 32
-149 39 -27 7 -85 29 -128 49 -43 20 -84 37 -92 37 -31 0 -190 93 -242 142
-73 68 -113 111 -113 120 0 3 -6 13 -14 20 -19 19 -55 105 -67 158 -14 58 -28
193 -22 203 8 13 23 -4 23 -26z"/>
<path d="M2315 2980 c-4 -6 3 -10 14 -10 25 0 27 6 6 13 -8 4 -17 2 -20 -3z"/>
<path d="M2418 2963 c7 -3 16 -2 19 1 4 3 -2 6 -13 5 -11 0 -14 -3 -6 -6z"/>
<path d="M2460 2953 c0 -20 48 -32 173 -44 97 -10 130 -10 139 -1 17 17 11 19
-77 31 -144 18 -235 24 -235 14z"/>
<path d="M2829 2901 c8 -5 11 -16 8 -25 -4 -10 -1 -16 7 -16 7 0 27 -3 44 -6
26 -5 30 -3 28 12 -3 21 -26 32 -26 13 0 -8 -7 -3 -16 9 -8 12 -25 22 -37 22
-17 0 -19 -2 -8 -9z"/>
<path d="M2307 2664 c-69 -12 -166 -49 -206 -79 -38 -28 -103 -102 -125 -142
-14 -25 -28 -66 -30 -92 -3 -25 -10 -90 -16 -145 l-11 -99 30 -61 c16 -33 38
-70 49 -82 34 -36 115 -82 197 -111 71 -24 94 -28 205 -28 l125 0 70 56 c92
74 121 108 157 186 30 63 31 67 25 181 -7 145 -27 210 -86 280 -104 123 -222
165 -384 136z m138 -54 c4 -6 11 -8 16 -5 5 4 14 3 21 -1 8 -5 6 -10 -8 -15
-17 -7 -17 -8 4 -8 70 -2 167 -86 216 -187 16 -32 33 -67 37 -76 12 -24 11
-145 -1 -153 -5 -3 -10 -21 -10 -40 0 -21 -9 -44 -25 -63 -14 -17 -25 -35 -25
-41 0 -6 -4 -11 -10 -11 -5 0 -13 -12 -16 -27 -14 -53 -91 -98 -150 -87 -27 5
-34 3 -34 -10 0 -29 -34 -37 -117 -26 -111 14 -167 26 -171 39 -2 6 -11 11
-20 11 -9 0 -28 16 -41 35 -13 19 -27 35 -32 35 -21 0 -49 43 -73 112 l-25 73
27 6 c22 5 23 7 6 8 -16 1 -23 10 -28 32 -11 55 -6 143 9 169 8 14 19 37 26
53 6 15 15 27 20 27 5 0 9 5 9 10 0 18 34 48 63 55 15 4 30 11 33 16 6 10 50
31 129 60 54 20 160 25 170 9z"/>
<path d="M2268 2394 c-10 -3 -18 -10 -18 -15 0 -5 -7 -9 -15 -9 -8 0 -15 -7
-15 -15 0 -8 -9 -19 -20 -25 -16 -9 -20 -21 -20 -65 0 -34 -4 -55 -11 -55 -8
0 -8 -5 1 -15 7 -8 10 -23 8 -33 -7 -26 72 -102 106 -102 14 0 26 -4 26 -10 0
-14 117 -13 122 1 2 5 22 13 45 16 23 3 41 8 41 12 -4 12 14 51 22 51 5 0 12
16 16 34 5 31 10 35 43 39 l36 4 -37 1 c-37 2 -38 3 -38 38 0 37 -28 94 -63
128 -16 16 -37 20 -116 22 -53 2 -104 1 -113 -2z"/>
<path d="M2038 2223 c7 -3 16 -2 19 1 4 3 -2 6 -13 5 -11 0 -14 -3 -6 -6z"/>
</g>
</svg>
